<?xml version="1.0" encoding="UTF-8" standalone="no"?>
<svg viewBox="0 0 603 182" xmlns="http://www.w3.org/2000/svg">
    <path d="M374.003 141.422c-34.798 25.622-85.267 39.279-128.69 39.279-60.82 0-115.614-22.458-157.09-59.829-3.253-2.956-.341-6.981 3.571-4.684 44.716 26.01 100.04 41.676 157.177 41.676 38.532 0 80.883-7.98 119.875-24.527 5.883-2.505 10.816 3.859 5.157 8.085z" fill="#FF9900"/>
    <path d="M388.076 125.221c-4.444-5.696-29.398-2.697-40.637-1.363-3.41.414-3.932-2.567-.86-4.719 19.922-13.999 52.582-9.963 56.392-5.272 3.82 4.72-1 37.383-19.657 52.975-2.87 2.4-5.586 1.124-4.32-2.063 4.194-10.481 13.577-33.994 9.082-39.558z" fill="#FF9900"/>
    <path d="M348.729 19.973v-13.88c0-2.109 1.596-3.51 3.507-3.51h62.144c1.987 0 3.583 1.424 3.583 3.51v11.872c-.024 1.995-1.715 4.607-4.712 8.728l-32.209 45.972c11.954-.288 24.598 1.498 35.462 7.588 2.451 1.365 3.112 3.373 3.304 5.354v14.782c0 2.012-2.217 4.36-4.555 3.145-19.041-9.983-44.31-11.077-65.349.126-2.15 1.15-4.403-1.162-4.403-3.174v-14.027c0-2.237.034-6.061 2.264-9.466l37.307-53.508h-32.504c-1.987 0-3.583-1.4-3.583-3.51l-.256-.002zm-207.56 100.088h-18.908c-1.796-.127-3.237-1.477-3.369-3.198V20.949c0-1.932 1.62-3.47 3.63-3.47h17.633c1.834.094 3.3 1.49 3.432 3.242v12.82h.35c4.592-12.252 13.235-17.982 24.89-17.982 11.83 0 19.23 5.73 24.528 17.982 4.592-12.252 15.019-17.982 26.17-17.982 7.942 0 16.616 3.277 21.913 10.632 5.995 8.156 4.769 19.988 4.769 30.383l-.008 60.487c0 1.932-1.62 3.47-3.63 3.47h-18.9c-1.883-.127-3.384-1.637-3.384-3.47V66.236c0-4.192.367-14.652-.542-18.615-1.446-6.678-5.775-8.556-11.383-8.556-4.684 0-9.552 3.13-11.54 8.156-1.992 5.025-1.809 13.407-1.809 19.015v50.823c0 1.932-1.62 3.47-3.63 3.47h-18.9c-1.892-.127-3.384-1.637-3.384-3.47l-.009-50.823c0-11.07 1.809-27.384-11.924-27.384-13.916 0-13.366 15.87-13.366 27.384v50.823c0 1.932-1.62 3.47-3.63 3.47zM99.795 19.973c27.659 0 42.627 23.752 42.627 53.954 0 29.18-16.526 52.304-42.627 52.304-27.16 0-41.947-23.752-41.947-53.326 0-29.782 14.971-52.932 41.947-52.932zm.158 19.427c-13.726 0-14.596 18.708-14.596 30.383 0 11.702-.166 36.625 14.438 36.625 14.437 0 15.124-20.118 15.124-32.389 0-8.074-.341-17.729-2.789-25.394-2.097-6.678-6.273-9.225-12.177-9.225zm235.898 81.66h-18.867c-1.884-.127-3.384-1.637-3.384-3.47l-.009-95.693c.158-1.758 1.717-3.13 3.63-3.13h17.55c1.65.094 3.011 1.198 3.384 2.697v14.622h.35c5.302-13.278 12.727-19.607 25.804-19.607 8.5 0 16.784 3.071 22.087 11.463 4.934 7.754 4.934 20.806 4.934 30.22v61.164c-.21 1.678-1.768 3-3.63 3h-18.958c-1.734-.127-3.17-1.414-3.359-3V66.236c0-10.868 1.25-26.762-12.117-26.762-4.71 0-9.053 3.156-11.21 7.982-2.717 6.08-3.075 12.134-3.075 18.78v51.836c-.025 1.932-1.662 3.47-3.68 3.47l-.45-.012zm-176.753-53.6v-5.025c-13.542 0-27.844 2.906-27.844 18.776 0 8.074 4.195 13.528 11.382 13.528 5.26 0 9.962-3.243 12.935-8.498 3.674-6.48 3.527-12.532 3.527-18.781zm19.25 53.6h-18.842c-1.883-.127-3.384-1.637-3.384-3.47l-.008-95.693c.166-1.758 1.725-3.13 3.63-3.13h17.541c1.667.094 3.045 1.223 3.384 2.722v14.597h.35c5.293-13.278 12.735-19.607 25.804-19.607 8.5 0 16.783 3.071 22.086 11.463 4.934 7.754 4.934 20.806 4.934 30.22v61.164c-.192 1.678-1.75 3-3.63 3h-18.933c-1.742-.127-3.186-1.414-3.367-3V66.236c0-10.868 1.25-26.762-12.117-26.762-4.71 0-9.045 3.156-11.209 7.982-2.717 6.08-3.092 12.134-3.092 18.78v51.836c-.025 1.932-1.662 3.47-3.68 3.47l-.467-.012z" fill="#000000"/>
</svg> 