<?xml version="1.0" encoding="UTF-8" standalone="no"?>
<svg viewBox="0 0 500 100" xmlns="http://www.w3.org/2000/svg">
    <path d="M374.245 24.335v8.034h-15.47v44.275h-9.917V32.37h-15.47v-8.034h40.857zm-61.35 25.572c0-2.51-.602-4.42-1.807-5.728-1.204-1.307-2.911-1.961-5.124-1.961-2.212 0-4.019.654-5.424 1.961-1.405 1.308-2.212 3.218-2.412 5.728h14.767zm9.015 4.018l.1 1.961c0 5.627-1.606 10.146-4.821 13.56-3.215 3.413-7.433 5.124-12.655 5.124-5.426 0-9.768-1.71-13.027-5.124-3.26-3.414-4.888-7.933-4.888-13.56v-1.961c0-5.626 1.628-10.145 4.888-13.559 3.259-3.414 7.601-5.124 13.027-5.124 5.323 0 9.591 1.71 12.806 5.124 3.214 3.414 4.821 7.933 4.821 13.56l-.301 1.961h-24.985c.2 2.51 1.007 4.42 2.412 5.728 1.405 1.307 3.212 1.961 5.424 1.961 3.616 0 6.228-1.307 7.833-3.922h9.316zm-63.06-15.47c-2.814 0-5.025.905-6.63 2.714-1.606 1.808-2.412 4.27-2.412 7.388 0 3.115.806 5.577 2.412 7.385 1.605 1.808 3.816 2.714 6.63 2.714 2.814 0 5.024-.906 6.63-2.714 1.605-1.808 2.412-4.27 2.412-7.385 0-3.117-.807-5.58-2.412-7.388-1.606-1.809-3.816-2.714-6.63-2.714zm0-7.236c5.625 0 10.095 1.71 13.409 5.124 3.314 3.414 4.972 7.933 4.972 13.56v1.961c0 5.626-1.658 10.145-4.972 13.559-3.314 3.414-7.784 5.124-13.41 5.124-5.626 0-10.095-1.71-13.409-5.124-3.314-3.414-4.972-7.933-4.972-13.56v-1.961c0-5.626 1.658-10.145 4.972-13.559 3.314-3.414 7.783-5.124 13.41-5.124zm-39.077 0c3.315 0 6.028.955 8.135 2.864 2.112 1.91 3.165 4.472 3.165 7.687v24.384h-9.917V42.738c0-1.508-.452-2.663-1.355-3.47-.904-.804-2.16-1.205-3.766-1.205-2.212 0-3.967.754-5.273 2.262-1.305 1.508-1.957 3.57-1.957 6.184v18.135h-9.917V31.219h9.015v4.018c1.205-1.508 2.663-2.663 4.37-3.47 1.707-.804 3.666-1.205 5.878-1.205l1.622.1zm-39.378 0c3.315 0 6.028.955 8.135 2.864 2.112 1.91 3.165 4.472 3.165 7.687v24.384h-9.917V42.738c0-1.508-.452-2.663-1.355-3.47-.904-.804-2.16-1.205-3.766-1.205-2.212 0-3.967.754-5.273 2.262-1.305 1.508-1.957 3.57-1.957 6.184v18.135h-9.917V31.219h9.015v4.018c1.205-1.508 2.663-2.663 4.37-3.47 1.707-.804 3.666-1.205 5.878-1.205l1.622.1zm-39.378-23.474v52.309h-9.917V7.745h9.917zm-22.271 23.474c3.315 0 6.028.955 8.135 2.864 2.112 1.91 3.165 4.472 3.165 7.687v24.384h-9.917V42.738c0-1.508-.452-2.663-1.355-3.47-.904-.804-2.16-1.205-3.766-1.205-2.212 0-3.967.754-5.273 2.262-1.305 1.508-1.957 3.57-1.957 6.184v18.135h-9.917V31.219h9.015v4.018c1.205-1.508 2.663-2.663 4.37-3.47 1.707-.804 3.666-1.205 5.878-1.205l1.622.1z" fill="#0668E1"/>
</svg> 